<?xml version="1.0" encoding="utf-8"?>
<!-- Generator: Adobe Illustrator 22.1.0, SVG Export Plug-In . SVG Version: 6.00 Build 0)  -->
<svg version="1.1" id="Layer_1" xmlns="http://www.w3.org/2000/svg" xmlns:xlink="http://www.w3.org/1999/xlink" x="0px" y="0px"
	 viewBox="0 0 56.5 56.5" style="enable-background:new 0 0 56.5 56.5;" xml:space="preserve">
<g>
	<path d="M40.6,21.9c0,0.3,0,0.5,0,0.8c0,8.4-6.4,18.1-18.1,18.1c-3.6,0-6.9-1.1-9.7-2.9c0.5,0.1,1,0.1,1.5,0.1c3,0,5.7-1,7.9-2.7
		c-2.8-0.1-5.1-1.9-5.9-4.4C16.6,31,17,31,17.4,31c0.6,0,1.1-0.1,1.7-0.2c-2.9-0.6-5.1-3.2-5.1-6.2v-0.1c0.9,0.5,1.8,0.8,2.9,0.8
		c-1.7-1.1-2.8-3.1-2.8-5.3c0-1.2,0.3-2.3,0.9-3.2c3.1,3.8,7.8,6.4,13.1,6.6c-0.1-0.5-0.2-1-0.2-1.4c0-3.5,2.8-6.4,6.4-6.4
		c1.8,0,3.5,0.8,4.6,2c1.4-0.3,2.8-0.8,4-1.5c-0.5,1.5-1.5,2.7-2.8,3.5c1.3-0.2,2.5-0.5,3.6-1C42.9,19.9,41.8,21,40.6,21.9 M28.2,0
		C12.6,0,0,12.6,0,28.2s12.6,28.2,28.2,28.2s28.2-12.6,28.2-28.2C56.5,12.6,43.8,0,28.2,0"/>
</g>
</svg>
