<svg id="Layer_2" data-name="Layer 2" xmlns="http://www.w3.org/2000/svg" viewBox="0 0 56.6 56.6"><path d="M26.63,0,25.32.08a28.15,28.15,0,0,0-14,5.52A33.15,33.15,0,0,0,6.7,10,28.66,28.66,0,0,0,.28,24.58a37.1,37.1,0,0,0,0,7.3,31.14,31.14,0,0,0,1.41,5.85c.1.24.3.75.44,1.14a35.5,35.5,0,0,0,2.16,4.25,28.26,28.26,0,0,0,8.49,8.69,19.75,19.75,0,0,0,2.68,1.6,28.29,28.29,0,0,0,10.18,3,32.81,32.81,0,0,0,5.78,0A28.51,28.51,0,0,0,55.53,36.31a26.55,26.55,0,0,0,1.16-7.65,20.34,20.34,0,0,0-.12-3.3A28.33,28.33,0,0,0,31.54.11,41.16,41.16,0,0,0,26.63,0Zm-8.8,13a3.7,3.7,0,0,1,1.58.88,4,4,0,0,1,1,2.84A3.61,3.61,0,0,1,17.6,20a2.18,2.18,0,0,1-1.51,0,3.42,3.42,0,0,1-1.83-1,3.26,3.26,0,0,1-1-2.57,3.18,3.18,0,0,1,1-2.48A3.64,3.64,0,0,1,17.83,12.93ZM20,33.34V43.65H13.65V23H20Zm10.28-9a6.91,6.91,0,0,0,.06,1.34,6.05,6.05,0,0,0,.63-.59,6.45,6.45,0,0,1,1.52-1.2,7.74,7.74,0,0,1,1.8-.67,6.33,6.33,0,0,1,2.27-.19,7.67,7.67,0,0,1,2.34.19A5.11,5.11,0,0,1,43,26.88a10.21,10.21,0,0,1,.52,3.55c.07,2,.21,9.92.21,12v1.26H37.21l0-6.44c0-5.81,0-6.48-.15-6.95a2.1,2.1,0,0,0-2.2-1.85c-2.51-.21-4,.54-4.33,2.2-.13.58-.23,4.12-.24,8.23,0,1.23,0,2.82-.06,3.52l0,1.29H23.87v-5.9c0-9.12.07-14.51.19-14.63s.62-.1,3.15-.1h3Z" transform="translate(-0.1 0.08)"/></svg>