<?xml version="1.0" encoding="utf-8"?>
<!-- Generator: Adobe Illustrator 22.1.0, SVG Export Plug-In . SVG Version: 6.00 Build 0)  -->
<svg version="1.1" id="Layer_1" xmlns="http://www.w3.org/2000/svg" xmlns:xlink="http://www.w3.org/1999/xlink" x="0px" y="0px"
	 viewBox="0 0 56.5 56.5" style="enable-background:new 0 0 56.5 56.5;" xml:space="preserve">
<g>
	<path d="M37.2,17.7h-2.4c-0.4,0-0.8,0.3-0.8,0.8v2.4c0,0.4,0.3,0.8,0.8,0.8h2.4c0.4,0,0.8-0.3,0.8-0.8v-2.4
		C38,18.1,37.6,17.7,37.2,17.7"/>
	<path d="M42.1,23.2h-4.7h-5.2c-1.1-0.8-2.4-1.2-3.8-1.2s-2.7,0.5-3.8,1.2H14.4v-1.9c0-3.8,3.1-6.9,6.9-6.9h13.9
		c3.8,0,6.9,3.1,6.9,6.9V23.2z M25.6,28.5c0-1.5,1.2-2.7,2.7-2.7S31,27,31,28.5s-1.2,2.7-2.7,2.7C26.9,31.3,25.6,30.1,25.6,28.5
		 M42.1,35.2c0,3.8-3.1,6.9-6.9,6.9H21.3c-3.8,0-6.9-3.1-6.9-6.9v-9.5h8.1c-0.4,0.9-0.6,1.8-0.6,2.8c0,3.6,3,6.6,6.6,6.6
		s6.6-3,6.6-6.6c0-1-0.2-1.9-0.6-2.8h7.8v9.5C42.3,35.2,42.1,35.2,42.1,35.2z M28.2,0C12.6,0,0,12.6,0,28.2s12.6,28.2,28.2,28.2
		s28.2-12.6,28.2-28.2C56.5,12.6,43.8,0,28.2,0"/>
</g>
</svg>
