<?xml version="1.0" encoding="utf-8"?>
<!-- Generator: Adobe Illustrator 22.0.1, SVG Export Plug-In . SVG Version: 6.00 Build 0)  -->
<svg version="1.1" id="Layer_1" xmlns="http://www.w3.org/2000/svg" xmlns:xlink="http://www.w3.org/1999/xlink" x="0px" y="0px"
	 viewBox="0 0 493.3 355.5" style="enable-background:new 0 0 493.3 355.5;" xml:space="preserve">
<style type="text/css">
	.st0{fill:#FFFFFF;}
</style>
<g>
	<g>
		<path class="st0" d="M375.6,34.5c19.9,1.5,34.2,7.3,44.9,17.5c12.4,12,20.2,28.3,23.1,49l42.3-10.8c-4.6-28.2-17.5-50.3-38.6-66.4
			C428.4,9.4,405.1,1.5,375.6,0V34.5z"/>
		<path class="st0" d="M485,211.2c-5.6-11.1-13.5-20.6-23.9-28.3c-10.3-7.7-23-14-38.1-18.9c-15.1-4.9-32.1-8.8-51.2-11.8
			c-15.8-2.6-28.8-5.5-39.1-8.6c-10.3-3.1-18.7-7-25.1-11.6c-6.4-4.6-10.9-10-13.5-16.2c-2.6-6.2-3.9-13.8-3.9-22.6
			c0-17.7,5.9-32,17.7-42.8c10.2-9.3,26.4-14.6,46.9-15.9V0C341,0.8,327.7,2.9,316,6.6c-14.6,4.6-27,11.1-37.4,19.4
			c-10.3,8.3-18.4,18.5-24.1,30.5c-5.7,12-8.6,25.5-8.6,40.6c0,28.5,9.8,50,29.5,64.4c19.7,14.4,48.4,24.3,86.1,29.5
			c16.1,2.3,29.7,5.2,40.8,8.6c11.1,3.4,20.1,7.8,26.8,13c6.7,5.3,11.5,11.4,14.5,18.5c2.9,7,4.4,15.2,4.4,24.3
			c0,20.7-6.8,36.9-20.4,48.7c-11.7,10.2-30.3,15.9-52,17.3v34.1c16.3-0.7,32.3-3.2,45.1-7.3c15.6-5.1,28.7-12.1,39.4-21.2
			c10.6-9,18.9-19.9,24.6-32.7c5.7-12.8,8.6-26.9,8.6-42.3C493.3,236,490.6,222.4,485,211.2"/>
		<path class="st0" d="M354.8,321.5c-10.7-0.8-19-2.8-27.5-6.3c-11-4.4-19.9-10.1-26.8-17.2c-6.9-7-12-15.1-15.2-24.1
			c-3.3-9-5.2-18.1-5.9-27.3l-42.3,6.4c0.6,14.4,3.9,27.9,9.8,40.3c5.9,12.5,14.3,23.4,25.3,32.7c11,9.3,24.4,16.7,40.3,21.9
			c13.2,4.3,26.2,6.8,42.2,7.6V321.5z"/>
	</g>
	<rect x="0" y="5.6" class="st0" width="42.8" height="288.8"/>
	<polygon class="st0" points="0,315.5 0,349.9 195.3,349.9 195.3,315.5 1.3,315.5 	"/>
</g>
</svg>
