<?xml version="1.0" standalone="no"?>
<!DOCTYPE svg PUBLIC "-//W3C//DTD SVG 20010904//EN"
 "http://www.w3.org/TR/2001/REC-SVG-20010904/DTD/svg10.dtd">
<svg version="1.0" xmlns="http://www.w3.org/2000/svg"
 width="3140.000000pt" height="339.000000pt" viewBox="0 0 3140.000000 339.000000"
 preserveAspectRatio="xMidYMid meet">

<g transform="translate(0.000000,339.000000) scale(0.100000,-0.100000)"
fill="#000000" stroke="none">
<path d="M10045 3373 c-11 -2 -78 -24 -150 -48 -128 -43 -295 -75 -389 -75
l-46 0 0 -45 c0 -36 3 -45 18 -45 9 0 51 -14 93 -31 l77 -30 33 -72 34 -72 3
-1292 3 -1292 -38 -67 c-34 -59 -45 -69 -105 -100 -47 -24 -81 -34 -113 -34
l-45 0 0 -50 0 -50 500 0 500 0 0 50 0 50 -46 0 c-33 0 -64 10 -113 35 -59 31
-70 42 -103 101 l-38 66 0 627 c0 388 4 651 11 691 16 102 68 190 174 296 151
151 305 212 472 186 42 -7 95 -21 119 -31 70 -31 146 -111 183 -190 64 -139
64 -136 68 -893 l4 -687 -38 -66 c-34 -61 -45 -70 -105 -101 -47 -24 -81 -34
-113 -34 l-45 0 0 -50 0 -50 488 2 487 3 0 45 0 45 -50 5 c-76 9 -140 55 -187
136 l-38 65 0 648 c0 618 -1 652 -20 727 -87 340 -323 516 -715 531 -175 6
-253 -8 -385 -73 -81 -40 -109 -61 -192 -144 -68 -68 -100 -94 -107 -87 -8 8
-11 234 -11 709 l0 698 -27 -1 c-16 -1 -37 -3 -48 -6z"/>
<path d="M28661 3373 c-13 -3 -67 -20 -120 -40 -123 -45 -242 -71 -364 -79
l-97 -7 0 -43 c0 -40 2 -44 24 -44 14 0 58 -15 98 -33 l74 -34 29 -74 30 -74
3 -489 c3 -494 2 -505 -30 -506 -4 0 -25 26 -47 58 -81 118 -182 195 -316 239
-75 25 -92 27 -250 27 -155 0 -178 -3 -258 -27 -450 -138 -730 -569 -731
-1127 0 -169 13 -255 63 -403 61 -178 144 -313 271 -437 120 -118 249 -191
420 -237 49 -14 101 -18 215 -17 136 0 157 3 223 27 131 47 266 155 340 272
45 70 62 85 83 74 17 -9 19 -24 19 -169 l0 -160 318 2 317 3 0 45 0 45 -40 3
c-22 1 -64 14 -92 30 -96 49 -87 -101 -93 1647 l-5 1530 -30 1 c-16 1 -41 0
-54 -3z m-810 -1203 c85 -16 175 -66 245 -136 119 -118 214 -362 245 -624 18
-157 7 -414 -25 -566 -56 -266 -138 -445 -261 -570 -91 -92 -157 -129 -258
-146 -129 -21 -238 24 -359 149 -142 147 -243 366 -284 612 -22 138 -15 429
15 575 101 489 367 765 682 706z"/>
<path d="M4306 3281 c-51 -14 -65 -24 -113 -78 -51 -58 -55 -67 -64 -134 -10
-67 -9 -78 16 -146 27 -72 29 -74 94 -113 64 -38 71 -40 150 -40 77 0 86 2
147 38 62 36 65 40 93 112 26 70 28 80 19 145 -7 49 -17 79 -33 100 -73 91
-80 96 -150 116 -80 22 -80 22 -159 0z"/>
<path d="M20 3205 l0 -45 53 0 c38 -1 76 -11 141 -39 l88 -38 34 -79 33 -79 1
-1261 0 -1261 -30 -74 c-17 -41 -36 -79 -43 -86 -29 -28 -145 -67 -212 -73
l-70 -5 0 -45 0 -45 480 0 480 0 3 47 3 48 -109 0 c-101 0 -114 2 -188 34 -78
34 -80 35 -131 118 l-53 83 0 1225 c0 716 4 1220 9 1215 12 -14 944 -2356 991
-2492 42 -121 70 -241 70 -298 l0 -35 129 0 129 0 10 28 c172 480 1007 2781
1013 2792 6 10 8 -45 4 -150 -3 -91 -7 -642 -10 -1225 l-6 -1060 -31 -75 c-17
-41 -35 -79 -39 -84 -4 -5 -43 -24 -85 -42 -69 -30 -87 -34 -166 -34 l-88 0 0
-50 0 -50 595 0 595 0 0 50 0 50 -48 0 c-33 0 -73 11 -125 33 -43 19 -80 37
-84 40 -3 4 -22 42 -40 84 -34 78 -34 79 -43 298 -12 286 -12 2026 -1 2175 8
94 15 129 41 190 18 41 37 80 43 87 23 23 179 83 218 83 l39 0 0 45 0 45 -430
0 -430 0 0 -88 c0 -106 -23 -248 -56 -345 -116 -340 -809 -2247 -819 -2250 -6
-3 -16 -2 -22 1 -14 10 -911 2344 -934 2432 -11 41 -23 114 -26 163 l-6 87
-438 0 -439 0 0 -45z"/>
<path d="M17107 3158 c-7 -102 -39 -250 -85 -398 -16 -52 -208 -603 -427
-1225 -449 -1277 -433 -1241 -557 -1320 -58 -38 -76 -45 -119 -45 l-50 0 3
-48 3 -47 375 0 375 0 0 45 0 45 -83 3 c-77 3 -88 6 -140 40 -31 20 -58 37
-60 38 -2 1 -11 33 -21 71 l-17 68 132 378 c73 208 140 389 148 402 33 50 25
50 607 53 l546 3 40 -33 c40 -32 45 -45 182 -420 l142 -388 -20 -67 c-20 -65
-23 -69 -81 -105 -56 -36 -65 -38 -140 -38 l-81 0 3 -47 3 -48 543 -3 542 -2
0 50 0 50 -36 0 c-25 0 -55 13 -104 44 -129 83 -113 48 -583 1306 -496 1328
-547 1473 -587 1673 l-11 57 -218 0 -218 0 -6 -92z m206 -598 c270 -743 427
-1184 427 -1198 0 -9 -7 -24 -17 -34 -15 -17 -45 -18 -521 -18 -505 0 -506 0
-529 22 -13 12 -23 26 -23 31 0 5 96 282 214 616 118 333 238 679 267 768 29
89 54 161 55 160 1 -1 58 -157 127 -347z"/>
<path d="M4449 2301 c-102 -44 -199 -63 -357 -69 l-143 -5 3 -46 c3 -45 4 -46
43 -52 22 -4 65 -18 95 -32 53 -23 56 -27 85 -98 l30 -74 3 -778 3 -778 -37
-65 c-33 -59 -42 -68 -105 -99 -48 -25 -82 -35 -114 -35 l-45 0 0 -50 0 -50
503 2 502 3 0 45 0 45 -47 3 c-74 5 -174 65 -212 127 l-31 50 -5 990 -5 990
-50 2 c-37 2 -67 -5 -116 -26z"/>
<path d="M19542 2310 c-122 -55 -251 -80 -419 -80 l-113 0 0 -45 c0 -43 1 -45
29 -45 15 0 61 -14 101 -32 71 -31 73 -34 104 -98 l31 -65 3 -790 3 -790 -26
-62 c-22 -51 -35 -67 -81 -97 -45 -30 -62 -36 -109 -36 l-55 0 0 -50 0 -50
540 0 540 0 0 50 0 50 -95 0 c-89 0 -100 2 -164 34 -60 31 -72 42 -105 97
l-37 62 3 656 3 656 36 76 c46 95 99 155 164 185 126 59 262 -4 341 -159 24
-46 27 -48 61 -45 l36 3 79 190 c82 201 87 226 52 280 -32 50 -88 70 -194 70
-145 0 -174 -16 -384 -225 -134 -132 -175 -167 -184 -158 -9 9 -12 73 -12 225
l0 213 -52 0 c-31 0 -71 -9 -96 -20z"/>
<path d="M21160 2304 c-97 -46 -193 -65 -352 -71 l-148 -6 0 -43 c0 -35 4 -44
18 -44 9 0 51 -14 93 -31 l77 -32 31 -79 31 -79 0 -782 -1 -782 -33 -55 c-41
-69 -123 -121 -206 -129 l-55 -6 0 -45 0 -45 490 0 490 0 0 45 c0 45 0 45 -40
51 -22 3 -68 20 -102 37 -54 28 -66 40 -98 96 l-36 64 3 664 3 663 27 73 c57
156 183 313 298 370 168 84 346 28 425 -132 53 -109 55 -130 55 -921 l0 -730
-33 -58 c-28 -48 -44 -64 -95 -93 -45 -25 -75 -34 -108 -34 l-45 0 3 -47 3
-48 470 0 470 0 3 47 3 48 -35 0 c-21 0 -60 14 -98 35 -57 31 -67 41 -96 100
l-32 65 0 724 0 724 30 58 c106 201 283 318 453 300 153 -16 251 -108 299
-282 22 -78 22 -92 26 -801 l3 -723 -37 -65 c-33 -60 -42 -69 -105 -100 -48
-25 -82 -35 -114 -35 l-45 0 0 -50 0 -50 490 0 490 0 0 50 0 50 -36 0 c-22 0
-62 14 -103 35 -58 31 -71 43 -99 94 l-32 59 0 643 c0 374 -4 681 -10 733 -31
271 -184 452 -440 523 -49 13 -103 17 -220 18 -134 0 -165 -3 -227 -23 -132
-41 -270 -152 -346 -278 -17 -30 -36 -53 -41 -51 -6 2 -28 34 -50 72 -113 190
-290 285 -536 285 -187 0 -292 -43 -421 -170 -47 -47 -95 -98 -106 -114 -36
-53 -43 -28 -43 160 l0 174 -52 0 c-36 0 -71 -9 -108 -26z"/>
<path d="M5745 2265 c-244 -53 -438 -232 -485 -447 -18 -81 -8 -238 19 -309
47 -123 139 -233 266 -318 104 -70 166 -102 332 -175 276 -119 433 -210 492
-285 91 -114 104 -284 33 -414 -73 -135 -251 -211 -445 -192 -289 28 -509 240
-592 569 -25 100 -35 120 -65 136 -12 6 -24 2 -43 -16 l-27 -25 0 -249 0 -250
57 -44 c167 -131 471 -226 725 -226 355 0 628 179 725 474 23 70 26 98 27 211
0 145 -15 201 -80 301 -84 128 -273 255 -544 369 -110 46 -301 144 -372 192
-179 118 -248 255 -205 404 32 108 126 178 268 200 322 50 593 -143 708 -503
15 -47 44 -68 93 -68 l38 0 -7 163 c-5 89 -8 231 -8 315 l0 152 -72 0 -73 0 0
-38 c0 -43 -23 -72 -58 -72 -12 0 -50 18 -85 39 -169 103 -431 148 -622 106z"/>
<path d="M8048 2265 c-369 -70 -690 -353 -811 -717 -118 -353 -71 -774 119
-1059 203 -306 522 -469 918 -469 267 0 454 71 621 235 98 97 149 172 192 285
l32 85 -22 7 c-12 3 -35 6 -50 7 -23 1 -30 -5 -39 -31 -37 -106 -128 -231
-218 -302 -118 -93 -250 -136 -420 -136 -170 0 -291 40 -421 139 -159 120
-280 352 -325 620 -22 139 -15 441 15 579 49 229 117 369 241 492 134 135 272
190 437 176 191 -17 316 -102 372 -251 34 -91 29 -168 -21 -312 l-43 -122 30
-31 c16 -17 59 -45 94 -63 189 -93 392 30 391 237 -1 275 -236 521 -585 612
-84 22 -127 27 -265 30 -116 2 -188 -1 -242 -11z"/>
<path d="M12885 2260 c-385 -79 -656 -312 -659 -565 -1 -80 20 -129 76 -181
58 -55 95 -69 183 -69 69 0 86 4 126 27 26 15 58 41 72 58 l26 30 -36 83 c-24
56 -37 103 -40 149 -5 59 -2 74 25 132 83 176 259 271 469 252 158 -15 269
-73 331 -176 58 -98 64 -132 69 -386 7 -315 11 -307 -187 -359 -58 -14 -195
-52 -305 -82 -480 -132 -750 -288 -849 -488 -57 -115 -46 -285 26 -397 105
-165 303 -254 593 -265 86 -3 169 -1 215 6 169 27 311 100 433 222 l77 78 0
-102 0 -103 33 -30 32 -29 285 5 285 5 3 48 3 47 -45 0 c-31 0 -62 9 -95 27
-43 24 -53 35 -70 83 -19 53 -20 85 -24 730 -3 754 0 720 -77 876 -126 257
-393 396 -759 393 -80 0 -159 -7 -216 -19z m614 -1114 l32 -33 -3 -285 -3
-284 -39 -80 c-55 -112 -170 -225 -287 -283 -188 -92 -370 -76 -497 43 -172
161 -160 509 24 691 75 74 180 122 424 193 301 89 300 88 349 38z"/>
<path d="M25115 2266 c-334 -64 -599 -249 -665 -463 -37 -121 -24 -195 51
-277 74 -81 176 -107 279 -71 53 19 130 80 130 104 0 9 -16 57 -36 106 -33 80
-36 95 -32 160 6 90 39 154 119 230 105 100 240 139 407 117 214 -29 331 -144
362 -360 13 -88 13 -397 0 -443 -19 -66 -35 -74 -356 -160 -331 -89 -437 -125
-599 -204 -205 -100 -318 -193 -375 -308 -56 -114 -58 -249 -5 -364 29 -63
111 -154 180 -198 149 -96 461 -142 677 -101 164 32 329 123 432 239 l56 62 0
-106 0 -105 33 -30 32 -29 285 5 285 5 0 45 0 45 -50 5 c-79 9 -130 44 -157
110 l-23 55 -5 695 -5 695 -27 73 c-39 108 -84 177 -168 263 -61 61 -94 85
-170 123 -143 70 -224 88 -420 92 -112 2 -188 -1 -235 -10z m590 -1117 l35
-31 0 -248 c0 -136 -5 -272 -10 -301 -23 -126 -120 -258 -255 -348 -104 -69
-186 -95 -305 -95 -86 -1 -101 2 -160 30 -158 75 -228 212 -217 419 12 210 99
346 283 438 40 20 298 103 484 155 68 20 107 14 145 -19z"/>
<path d="M30119 2264 c-182 -33 -350 -105 -475 -206 -120 -97 -181 -192 -204
-316 -14 -81 4 -150 56 -210 56 -66 104 -87 199 -87 69 0 86 4 125 27 25 14
58 40 74 57 l29 30 -39 88 c-32 74 -38 99 -39 158 0 92 34 165 112 244 104
103 242 145 406 124 167 -23 270 -88 326 -206 42 -90 51 -155 51 -391 0 -189
-2 -214 -19 -242 -10 -17 -32 -36 -47 -42 -16 -6 -148 -44 -294 -83 -387 -103
-511 -148 -705 -258 -128 -72 -228 -168 -275 -264 -80 -163 -38 -365 103 -492
125 -113 276 -163 522 -172 119 -5 168 -2 234 11 167 34 308 112 419 230 l62
67 0 -99 0 -98 38 -34 37 -35 283 3 282 3 0 50 0 49 -44 0 c-66 0 -132 41
-159 99 -22 45 -22 56 -28 736 -6 767 -3 733 -77 885 -44 90 -175 229 -264
279 -74 42 -183 78 -287 96 -103 18 -300 18 -402 -1z m589 -1115 l33 -30 -3
-292 -3 -292 -34 -70 c-51 -104 -178 -228 -291 -284 -343 -167 -651 40 -615
414 15 145 59 239 154 328 79 73 149 106 366 171 331 100 342 102 393 55z"/>
</g>
</svg>
