<?xml version="1.0" encoding="utf-8"?>
<!-- Generator: Adobe Illustrator 22.1.0, SVG Export Plug-In . SVG Version: 6.00 Build 0)  -->
<svg version="1.1" id="Layer_1" xmlns="http://www.w3.org/2000/svg" xmlns:xlink="http://www.w3.org/1999/xlink" x="0px" y="0px"
	 viewBox="0 0 83 83" style="enable-background:new 0 0 83 83;" xml:space="preserve">
<style type="text/css">
	.st0{fill:#003528;}
	.st1{fill:##ffffff;}
</style>
<g>
	<circle class="st0" cx="41.5" cy="41.5" r="41.5"/>
	<g>
		<path class="st1" d="M47.2,37.8l-0.8-1.7c-0.2,0.1-3,1.5-4.9,4.4c-1.9-3-4.8-4.4-4.9-4.4l-1.6,3.3c0.2,0.1,4.7,2.4,4.7,7.3h3.7
			c0-4.9,4.5-7.2,4.7-7.3L47.2,37.8z"/>
		<path class="st1" d="M34.9,44.5c-0.2,0.1-3,1.5-4.9,4.4c-1.9-3-4.8-4.4-4.9-4.4l-1.6,3.3c0.2,0.1,4.7,2.4,4.7,7.3h3.7
			c0-4.9,4.5-7.2,4.7-7.3l-0.8-1.7L34.9,44.5z"/>
		<path class="st1" d="M27.5,38.5h3.7c0-4.9,4.5-7.2,4.7-7.3l-0.8-1.7l-0.8-1.7c-0.2,0.1-3,1.5-4.9,4.4c-1.9-3-4.8-4.4-4.9-4.4
			l-1.6,3.3C22.8,31.2,27.5,33.5,27.5,38.5z"/>
		<path class="st1" d="M59.4,46.1l-0.8-1.7c-0.2,0.1-3,1.5-4.9,4.4c-1.9-3-4.8-4.4-4.9-4.4l-1.6,3.3c0.2,0.1,4.7,2.4,4.7,7.3h3.7
			c0-4.9,4.5-7.2,4.7-7.3L59.4,46.1z"/>
		<path class="st1" d="M51.2,38.5h3.7c0-4.9,4.5-7.2,4.7-7.3l-0.8-1.7L58,27.9c-0.2,0.1-3,1.5-4.9,4.4c-1.9-3-4.8-4.4-4.9-4.4
			l-1.6,3.3C46.5,31.2,51.2,33.5,51.2,38.5z"/>
	</g>
</g>
</svg>
