<?xml version="1.0" encoding="utf-8"?>
<!-- Generator: Adobe Illustrator 22.1.0, SVG Export Plug-In . SVG Version: 6.00 Build 0)  -->
<svg version="1.1" id="Layer_1" xmlns="http://www.w3.org/2000/svg" xmlns:xlink="http://www.w3.org/1999/xlink" x="0px" y="0px"
	 viewBox="0 0 83 83" style="enable-background:new 0 0 83 83;" xml:space="preserve">
<style type="text/css">
	.st0{fill:#003528;}
	.st1{fill:##ffffff;}
</style>
<g>
	<circle class="st0" cx="41.5" cy="41.5" r="41.5"/>
	<g>
		<path class="st1" d="M27,28.6h-3.7c0,5.4-3,9.9-6.5,9.9v3.7c3.5,0,6.5-2.3,8.4-5.8c1.7,3.2,4.4,5.4,7.5,5.8v-3.8
			C29.5,37.7,27,33.5,27,28.6z"/>
		<path class="st1" d="M43.9,28.6h-0.2h-3.5H40c0,4.9-2.5,9.1-5.6,9.8v3.8c3.1-0.4,5.9-2.6,7.6-5.9c1.7,3.3,4.5,5.6,7.7,5.9v-3.7
			C46.4,37.8,43.9,33.5,43.9,28.6z"/>
		<path class="st1" d="M60.6,28.6h-3.7c0,4.8-2.4,9-5.5,9.8v3.8c3.1-0.4,5.7-2.6,7.4-5.7c1.7,3.2,4.4,5.4,7.5,5.8v-3.8
			C63.1,37.7,60.6,33.5,60.6,28.6z"/>
		<path class="st1" d="M43.9,40.9h-0.2h-3.5H40c0,4.9-2.5,9.1-5.6,9.8v3.8c3.1-0.4,5.9-2.6,7.6-5.9c1.7,3.3,4.5,5.6,7.7,5.9v-3.7
			C46.4,50,43.9,45.8,43.9,40.9z"/>
		<path class="st1" d="M27,40.9h-3.7c0,5.4-3,9.9-6.5,9.9v3.7c3.5,0,6.5-2.3,8.4-5.8c1.7,3.2,4.4,5.4,7.5,5.8v-3.8
			C29.5,49.9,27,45.8,27,40.9z"/>
		<path class="st1" d="M60.6,40.9h-3.7c0,4.8-2.4,9-5.5,9.8v3.8c3.1-0.4,5.7-2.6,7.4-5.7c1.7,3.2,4.4,5.4,7.5,5.8v-3.8
			C63.1,49.9,60.6,45.8,60.6,40.9z"/>
	</g>
</g>
</svg>
